<svg xmlns="http://www.w3.org/2000/svg" width="512" height="512" viewBox="0 0 512 512">
  <defs>
    <clipPath id="triClip" clipPathUnits="userSpaceOnUse">
      <path d="
        M 218.329 110.063
        A 43.5 43.5 0 0 1 293.672 110.063
        L 435.828 356.284
        A 43.5 43.5 0 0 1 398.157 421.534
        L 113.843 421.534
        A 43.5 43.5 0 0 1 76.172 356.284
        Z"></path>
    </clipPath>
  </defs>

  <!-- fondo verde petróleo -->
  <rect x="32" y="32" width="448" height="448" rx="110" fill="#2f4f46"></rect>

  <!-- triángulo optimizado -->
  <path d="
    M 218.329 110.063
    A 43.5 43.5 0 0 1 293.672 110.063
    L 435.828 356.284
    A 43.5 43.5 0 0 1 398.157 421.534
    L 113.843 421.534
    A 43.5 43.5 0 0 1 76.172 356.284
    Z" fill="#85d77a"></path>

  <!-- bandas -->
  <g clip-path="url(#triClip)">
    <path d="M -140 250 Q 120 110 450 180 L 450 235 Q 120 160 -140 250 Z" fill="#ffffff"></path>

    <path d="M -140 250 Q 120 230 468 310 L 468 380 Q 120 270 -140 250 Z" fill="#ffffff"></path>

    <path d="M -140 250 Q 120 360 486 430 L 486 510 Q 120 400 -140 250 Z" fill="#ffffff"></path>
  </g>
</svg>